<svg aria-hidden="true" style="position: absolute; width: 0; height: 0; overflow: hidden;" version="1.1" xmlns="http://www.w3.org/2000/svg" xmlns:xlink="http://www.w3.org/1999/xlink">
    <defs>
        <symbol id="delete" viewBox="0 0 32 32">
            <path d="M11.25 5.75h-0.25c0.137 0 0.25-0.112 0.25-0.25v0.25zM11.25 5.75h9.5v-0.25c0 0.138 0.113 0.25 0.25 0.25h-0.25v2.25h2.25v-2.5c0-1.103-0.897-2-2-2h-10c-1.103 0-2 0.897-2 2v2.5h2.25v-2.25zM27 8h-22c-0.553 0-1 0.447-1 1v1c0 0.137 0.112 0.25 0.25 0.25h1.888l0.772 16.344c0.050 1.066 0.931 1.906 1.997 1.906h14.187c1.069 0 1.947-0.837 1.997-1.906l0.772-16.344h1.887c0.137 0 0.25-0.113 0.25-0.25v-1c0-0.553-0.447-1-1-1zM22.853 26.25h-13.706l-0.756-16h15.219l-0.756 16z"></path>
        </symbol>
        <symbol id="checkmark" viewBox="0 0 32 32">
            <path d="M26.278 8.389c0.124 0.124 0.223 0.271 0.29 0.433s0.102 0.336 0.102 0.511c0 0.175-0.035 0.349-0.102 0.511s-0.166 0.309-0.29 0.433l-12 12c-0.124 0.124-0.271 0.223-0.433 0.29s-0.336 0.102-0.511 0.102c-0.175 0-0.349-0.035-0.511-0.102s-0.309-0.166-0.433-0.29l-5.333-5.333c-0.25-0.25-0.391-0.59-0.391-0.944s0.141-0.694 0.391-0.944 0.59-0.391 0.944-0.391c0.354 0 0.694 0.141 0.944 0.391l4.389 4.392 11.056-11.059c0.124-0.124 0.271-0.223 0.433-0.29s0.336-0.102 0.511-0.102c0.175 0 0.349 0.035 0.511 0.102s0.309 0.166 0.433 0.29z"></path>
        </symbol>
    </defs>
</svg>